<svg width="79" height="79" viewBox="0 0 79 79" fill="none" xmlns="http://www.w3.org/2000/svg">
<path d="M78.9966 39.5C78.9966 47.3117 76.6801 54.9479 72.3402 61.4431C68.0002 67.9383 61.8317 73.0007 54.6147 75.9901C47.3976 78.9795 39.4562 79.7617 31.7946 78.2377C24.133 76.7137 17.0953 72.952 11.5716 67.4283C6.04794 61.9046 2.28626 54.867 0.76227 47.2054C-0.761715 39.5438 0.0204492 31.6023 3.00985 24.3853C5.99926 17.1682 11.0616 10.9997 17.5568 6.65975C24.052 2.31981 31.6883 0.00337486 39.5 0.00337486C44.6869 0.00271957 49.8232 1.02388 54.6154 3.00854C59.4077 4.9932 63.762 7.90247 67.4297 11.5702C71.0975 15.2379 74.0067 19.5923 75.9914 24.3845C77.9761 29.1768 78.9972 34.313 78.9966 39.5ZM64.7784 21.3406C64.7758 19.804 64.1642 18.331 63.0776 17.2444C61.991 16.1578 60.518 15.5462 58.9814 15.5436H28.1504C26.6133 15.5449 25.1396 16.1561 24.0527 17.243C22.9658 18.3298 22.3547 19.8036 22.3533 21.3406V47.7216H50.1162C50.9648 47.8406 51.7419 48.2619 52.3047 48.908C52.8674 49.5542 53.178 50.3818 53.1793 51.2387V56.9559C53.1793 57.5425 52.963 58.1086 52.5718 58.5457C52.1807 58.9829 51.6421 59.2606 51.0591 59.3256H50.5303C50.0681 59.2749 49.6308 59.0901 49.2722 58.7941C48.9137 58.498 48.6495 58.1036 48.5122 57.6593C48.3749 57.2151 48.3704 56.7404 48.4994 56.2937C48.6284 55.8469 48.8852 55.4477 49.2382 55.145C49.5449 54.864 49.7592 54.4967 49.8527 54.0914C49.9462 53.6861 49.9146 53.262 49.762 52.875C49.6102 52.5193 49.3571 52.2161 49.0342 52.0031C48.7113 51.7902 48.3328 51.6771 47.9461 51.6777H20.5075C18.9693 51.6777 17.4942 52.2887 16.4066 53.3764C15.319 54.464 14.7079 55.9391 14.7079 57.4772C14.7079 59.0154 15.319 60.4905 16.4066 61.5781C17.4942 62.6658 18.9693 63.2768 20.5075 63.2768H50.3806C50.658 63.2955 50.9364 63.2955 51.2137 63.2768H51.3335C51.5245 63.2762 51.7145 63.2476 51.8972 63.192C53.274 62.9462 54.5311 62.2524 55.473 61.2185C56.4149 60.1846 56.9888 58.8685 57.1056 57.4748L57.1305 27.3422C58.4641 27.4268 59.8006 27.2279 61.0517 26.7585C62.1462 26.3356 63.0874 25.5922 63.7523 24.6255C64.4173 23.6588 64.7749 22.5139 64.7784 21.3406ZM51.3335 23.6554H27.6964V27.6116H51.3335V23.6554ZM51.3335 31.4779H27.6964V35.4291H51.3335V31.4779ZM51.3335 39.3054H27.6964V43.2566H51.3335V39.3054ZM60.8272 21.3456C60.826 21.7221 60.7104 22.0892 60.4957 22.3984C60.2809 22.7076 59.9773 22.9442 59.6249 23.0767L59.59 23.0817L59.5052 23.1266C58.7394 23.3731 57.9315 23.4614 57.1305 23.386V21.3406C57.1299 21.0594 57.1939 20.7818 57.3176 20.5292C57.4413 20.2766 57.6214 20.0558 57.8439 19.8839C58.1679 19.6288 58.569 19.4916 58.9814 19.4948C59.4709 19.4948 59.9404 19.6892 60.2866 20.0354C60.6328 20.3816 60.8272 20.8561 60.8272 21.3456Z" fill="#1AADB6" stroke="#1AADB6" stroke-width="0.00666667"/>
</svg>
