<svg width="25" height="25" viewBox="0 0 25 25" fill="none" xmlns="http://www.w3.org/2000/svg">
<g clip-path="url(#clip0_472_160)">
<path d="M6.09848 0.78125C6.09848 0.57405 6.01817 0.375336 5.87521 0.228823C5.73225 0.08231 5.53835 0 5.33617 0C5.134 0 4.9401 0.08231 4.79714 0.228823C4.65418 0.375336 4.57386 0.57405 4.57386 0.78125V1.5625H3.04924C2.24053 1.5625 1.46495 1.89174 0.893102 2.47779C0.321259 3.06384 0 3.8587 0 4.6875V6.25H24.3939V4.6875C24.3939 3.8587 24.0727 3.06384 23.5008 2.47779C22.929 1.89174 22.1534 1.5625 21.3447 1.5625H19.8201V0.78125C19.8201 0.57405 19.7398 0.375336 19.5968 0.228823C19.4538 0.08231 19.2599 0 19.0578 0C18.8556 0 18.6617 0.08231 18.5187 0.228823C18.3758 0.375336 18.2955 0.57405 18.2955 0.78125V1.5625H6.09848V0.78125ZM14.3345 16.0094C15.2874 16.0094 16.1396 15.2531 16.1396 14.1656C16.1396 12.8656 15.3362 12.2437 14.3711 12.2437C13.4777 12.2437 12.5903 12.8484 12.5903 14.1344C12.5903 15.4109 13.4182 16.0094 14.3345 16.0094Z" fill="white"/>
<path d="M24.3939 21.875V7.8125H0V21.875C0 22.7038 0.321259 23.4987 0.893102 24.0847C1.46495 24.6708 2.24053 25 3.04924 25H21.3447C22.1534 25 22.929 24.6708 23.5008 24.0847C24.0727 23.4987 24.3939 22.7038 24.3939 21.875ZM14.2339 19.9844C12.5415 19.9844 11.7091 18.7859 11.6374 17.7859H12.6788C12.7443 18.3641 13.2688 19.0672 14.2811 19.0672C15.5679 19.0672 16.2647 17.7422 16.2708 15.6859H16.2296C15.9963 16.3328 15.2584 16.9203 14.121 16.9203C12.8221 16.9203 11.5658 15.9672 11.5658 14.1547C11.5658 12.3781 12.8937 11.3281 14.3055 11.3281C16.0924 11.3281 17.2831 12.475 17.2831 15.4969C17.2831 18.3172 16.1518 19.9828 14.2339 19.9828V19.9844ZM9.82771 11.4922V19.8234H8.79706V12.6234H8.77877C8.33663 12.8672 7.43253 13.4359 6.8608 13.8375V12.75C7.50242 12.2893 8.17095 11.8692 8.86262 11.4922H9.82771Z" fill="white"/>
</g>
<defs>
<clipPath id="clip0_472_160">
<rect width="24.3939" height="25" fill="white"/>
</clipPath>
</defs>
</svg>
