<svg width="25" height="16" viewBox="0 0 25 16" fill="none" xmlns="http://www.w3.org/2000/svg">
<path d="M25 7.35505C25 7.0766 24.7743 6.85088 24.4958 6.85088H4.87041C4.42124 6.85088 4.19629 6.30781 4.5139 5.9902L8.93213 1.57197C9.12952 1.37458 9.12895 1.05438 8.93087 0.857697L8.21454 0.146415C8.01745 -0.0492904 7.6992 -0.048728 7.50279 0.147673L0.147745 7.50272C-0.0491476 7.69962 -0.049147 8.01884 0.147746 8.21573L7.50154 15.5695C7.69843 15.7664 8.01766 15.7664 8.21455 15.5695L8.92363 14.8604C9.1204 14.6637 9.12054 14.3447 8.92395 14.1478L4.51204 9.72794C4.19487 9.4102 4.41991 8.86758 4.86887 8.86758H24.4958C24.7743 8.86758 25 8.64185 25 8.3634V7.35505Z" fill="white"/>
</svg>
