<svg width="25" height="25" viewBox="0 0 25 25" fill="none" xmlns="http://www.w3.org/2000/svg">
<path d="M20.8332 14.3224C20.8332 14.8041 20.5918 15.2021 20.2787 15.2651L20.1916 15.2738L7.36128 15.2738C7.00701 15.2738 6.71976 14.8478 6.71976 14.3224C6.71976 13.8407 6.96112 13.4427 7.27425 13.3797L7.36128 13.371L20.1916 13.371C20.5459 13.371 20.8332 13.797 20.8332 14.3224Z" fill="white"/>
<path d="M12.9889 21.2908C13.2399 21.6616 13.2408 22.264 12.9908 22.6364C12.7636 22.9748 12.4072 23.0067 12.1557 22.7311L12.0836 22.6392L6.90867 14.9975C6.67975 14.6595 6.65892 14.1291 6.84621 13.756L6.90864 13.6492L12.0836 6.00626C12.3346 5.63548 12.7408 5.63673 12.9908 6.00904C13.2181 6.34751 13.238 6.87613 13.0512 7.24802L12.9889 7.35453L8.27074 14.3237L12.9889 21.2908Z" fill="white"/>
</svg>
