<svg width="114" height="114" viewBox="0 0 114 114" fill="none" xmlns="http://www.w3.org/2000/svg">
<path d="M113.997 57C113.997 68.2729 110.654 79.2926 104.391 88.6656C98.1281 98.0387 89.2264 105.344 78.8116 109.658C68.3969 113.972 56.9367 115.101 45.8805 112.901C34.8242 110.702 24.6684 105.274 16.6973 97.3027C8.72613 89.3316 3.29773 79.1758 1.0985 68.1195C-1.10073 57.0632 0.0279945 45.6031 4.34194 35.1883C8.65588 24.7736 15.9613 15.8719 25.3343 9.60903C34.7074 3.34616 45.7271 0.00336032 57 0.00336032C64.4851 0.00241469 71.8972 1.47603 78.8128 4.34005C85.7283 7.20406 92.012 11.4024 97.3048 16.6952C102.598 21.988 106.796 28.2716 109.66 35.1872C112.524 42.1028 113.998 49.5148 113.997 57ZM93.4787 30.7946C93.4749 28.5771 92.5923 26.4515 91.0243 24.8835C89.4562 23.3155 87.3306 22.4329 85.1131 22.4291H40.6216C38.4035 22.431 36.2768 23.313 34.7084 24.8814C33.14 26.4498 32.258 28.5765 32.2561 30.7946V68.8644H72.32C73.5446 69.0361 74.666 69.6441 75.4782 70.5766C76.2903 71.509 76.7385 72.7033 76.7404 73.9399V82.1903C76.7403 83.0368 76.4282 83.8536 75.8637 84.4845C75.2992 85.1154 74.522 85.516 73.6807 85.6099H72.9176C72.2506 85.5367 71.6195 85.2701 71.1021 84.8428C70.5847 84.4156 70.2034 83.8464 70.0053 83.2054C69.8071 82.5643 69.8007 81.8793 69.9869 81.2346C70.173 80.5899 70.5436 80.0137 71.0529 79.5769C71.4956 79.1715 71.8048 78.6414 71.9398 78.0565C72.0748 77.4717 72.0291 76.8596 71.8089 76.3013C71.5898 75.7879 71.2246 75.3503 70.7586 75.043C70.2926 74.7358 69.7465 74.5725 69.1883 74.5734H29.5923C27.3727 74.5734 25.244 75.4552 23.6745 77.0247C22.1049 78.5942 21.2232 80.7229 21.2232 82.9426C21.2232 85.1622 22.1049 87.2909 23.6745 88.8605C25.244 90.43 27.3727 91.3117 29.5923 91.3117H72.7016C73.1019 91.3388 73.5036 91.3388 73.9039 91.3117H74.0766C74.3523 91.3109 74.6264 91.2697 74.8902 91.1893C76.877 90.8346 78.6911 89.8335 80.0503 88.3415C81.4095 86.8495 82.2377 84.9502 82.4062 82.939L82.4422 39.4554C84.3667 39.5775 86.2953 39.2904 88.1008 38.6131C89.6802 38.0028 91.0385 36.9299 91.998 35.535C92.9576 34.14 93.4736 32.4878 93.4787 30.7946ZM74.0766 34.1351H39.9665V39.8441H74.0766V34.1351ZM74.0766 45.4236H39.9665V51.1254H74.0766V45.4236ZM74.0766 56.7192H39.9665V62.4211H74.0766V56.7192ZM87.7769 30.8018C87.7751 31.3451 87.6083 31.8749 87.2984 32.3211C86.9885 32.7673 86.5503 33.1087 86.0418 33.3L85.9914 33.3072L85.8691 33.372C84.7639 33.7277 83.598 33.855 82.4422 33.7464V30.7946C82.4413 30.3888 82.5337 29.9882 82.7122 29.6237C82.8907 29.2592 83.1505 28.9406 83.4717 28.6925C83.9392 28.3243 84.5181 28.1263 85.1131 28.1309C85.8196 28.1309 86.4971 28.4116 86.9967 28.9111C87.4962 29.4107 87.7769 30.0954 87.7769 30.8018Z" fill="#1AADB6" stroke="#1AADB6" stroke-width="0.00666667"/>
</svg>
