<svg width="18" height="18" viewBox="0 0 18 18" fill="none" xmlns="http://www.w3.org/2000/svg">
<path fill-rule="evenodd" clip-rule="evenodd" d="M13.1421 5.547V6.69701C14.4339 7.10022 15.3751 8.2696 15.3751 9.6663V13.369C15.3751 15.0981 13.9416 16.5 12.1743 16.5H5.82667C4.0586 16.5 2.62508 15.0981 2.62508 13.369V9.6663C2.62508 8.2696 3.56704 7.10022 4.85804 6.69701V5.547C4.86566 3.31109 6.71757 1.5 8.98864 1.5C11.2902 1.5 13.1421 3.31109 13.1421 5.547ZM9.00381 2.80429C10.5509 2.80429 11.8084 4.03404 11.8084 5.54701V6.53528H6.19164V5.5321C6.19927 4.02659 7.45674 2.80429 9.00381 2.80429ZM9.66722 12.3412C9.66722 12.7064 9.37 12.9971 8.99657 12.9971C8.63076 12.9971 8.33354 12.7064 8.33354 12.3412V10.6866C8.33354 10.3289 8.63076 10.0382 8.99657 10.0382C9.37 10.0382 9.66722 10.3289 9.66722 10.6866V12.3412Z" fill="#D9D9D9"/>
</svg>
